<svg width="19" height="18" viewBox="0 0 19 18" fill="none" xmlns="http://www.w3.org/2000/svg">
<path d="M18.6439 3.64706L15.1748 0.337969C14.9456 0.121512 14.6354 0 14.312 0C13.9886 0 13.6784 0.121512 13.4492 0.337969L1.15096 11.9927L0.0280992 16.5918C-0.0106356 16.7599 -0.00930774 16.9341 0.0319856 17.1017C0.073279 17.2692 0.153495 17.4259 0.266773 17.5603C0.380052 17.6947 0.523531 17.8034 0.686729 17.8784C0.849928 17.9534 1.02872 17.9929 1.21005 17.9939C1.29455 18.002 1.37968 18.002 1.46417 17.9939L6.36338 16.9283L18.6439 5.28478C18.872 5.06722 19 4.77281 19 4.46592C19 4.15902 18.872 3.86461 18.6439 3.64706ZM5.7724 15.9187L1.18051 16.8329L2.22654 12.5592L11.4281 3.86019L14.9739 7.22536L5.7724 15.9187ZM15.7658 6.41211L12.22 3.04694L14.2766 1.10635L17.7633 4.47153L15.7658 6.41211Z" fill="#B2B2B2"/>
</svg>
